<svg width="328" height="73" viewBox="0 0 328 73" fill="none" xmlns="http://www.w3.org/2000/svg">
<path d="M18.4842 29C17.8176 29.1333 17.3509 28.8133 17.0842 28.04C16.8176 27.24 16.6709 26.0667 16.6442 24.52C16.5909 22.2533 16.5109 20.36 16.4042 18.84C16.3242 17.2933 16.1642 15.9067 15.9242 14.68C13.4442 15.8533 10.9909 16.9333 8.56422 17.92C6.16422 18.88 4.96422 19.3467 4.96422 19.32L5.04422 27.84C5.04422 28.24 4.80422 28.4933 4.32422 28.6C3.68422 28.7333 3.25755 28.3733 3.04422 27.52C2.85755 26.64 2.72422 25.2667 2.64422 23.4C2.59089 21.72 2.51089 20.5333 2.40422 19.84C1.65755 20.2133 1.01755 20.3867 0.484219 20.36C0.377552 20.1467 0.324219 19.7067 0.324219 19.04C0.537552 18.96 0.790886 18.8667 1.08422 18.76C1.40422 18.6533 1.63089 18.5333 1.76422 18.4C1.92422 18.24 2.00422 18.0133 2.00422 17.72C2.00422 16.3867 1.87089 14.3333 1.60422 11.56C1.31089 9.05333 1.16422 6.98667 1.16422 5.36L1.20422 3.52C1.28422 3.33333 1.37755 3.21333 1.48422 3.16C1.61755 3.10667 1.79089 3.08 2.00422 3.08C2.45755 3.08 2.68422 3.22667 2.68422 3.52L4.32422 17.6C5.07089 17.4133 6.31089 16.9333 8.04422 16.16C9.77755 15.3867 12.4442 14.1333 16.0442 12.4L16.2042 3.52C16.2042 2.48 16.5909 1.96 17.3642 1.96C17.6842 1.96 17.8976 2.08 18.0042 2.32C18.1376 2.56 18.1776 2.96 18.1242 3.52L18.0842 10.44C18.0842 12.7867 18.2176 15.84 18.4842 19.6C18.5642 20.3467 18.6309 21.0667 18.6842 21.76C18.7642 22.4267 18.8309 23.0667 18.8842 23.68C19.0442 25.3333 19.1509 26.3867 19.2042 26.84C19.2842 27.2667 19.4042 27.6533 19.5642 28C19.4309 28.5333 19.0709 28.8667 18.4842 29ZM25.8464 29.04C25.2331 29.04 24.7397 28.1467 24.3664 26.36C23.9931 24.5467 23.7531 22.9867 23.6464 21.68C23.5397 20.3733 23.3931 18.3067 23.2064 15.48C23.1797 15.0267 23.1664 14.44 23.1664 13.72C23.1664 12.8133 23.2331 12.1867 23.3664 11.84C23.5264 11.4933 23.7797 11.32 24.1264 11.32C24.4197 11.32 24.6464 11.3867 24.8064 11.52C24.9931 11.6267 25.1531 11.8133 25.2864 12.08L25.2464 13.68C25.2464 15.3867 25.3264 17 25.4864 18.52C25.6731 20.04 25.9531 22.08 26.3264 24.64C26.5397 25.76 26.6864 26.68 26.7664 27.4C26.8197 27.7733 26.7531 28.1467 26.5664 28.52C26.3797 28.8667 26.1397 29.04 25.8464 29.04ZM24.8464 7.04C24.2597 7.04 23.8197 6.81333 23.5264 6.36C23.2597 5.90667 23.1264 5.34667 23.1264 4.68C23.1264 4.38667 23.1397 4.17333 23.1664 4.04C23.1397 3.61333 23.3797 3.4 23.8864 3.4C24.2597 3.4 24.6331 3.49333 25.0064 3.68C25.4064 3.84 25.5264 3.96 25.3664 4.04C25.6331 4.73333 25.7664 5.28 25.7664 5.68C25.7664 6.02667 25.6864 6.30666 25.5264 6.52C25.3664 6.70667 25.1397 6.88 24.8464 7.04ZM31.2739 20.36C30.9006 20.36 30.6739 20.2 30.5939 19.88C30.3806 18.4667 30.2739 16.12 30.2739 12.84L30.3139 8.6C30.3406 7.69333 30.3539 6.4 30.3539 4.72C30.3539 3.09333 30.3139 1.78666 30.2339 0.799998C30.2606 0.666665 30.3806 0.559998 30.5939 0.479998C30.8339 0.373332 31.1139 0.32 31.4339 0.32C31.7272 0.32 31.9672 0.359999 32.1539 0.439998C32.1806 2.2 32.2339 5.06667 32.3139 9.04C32.4206 12.9867 32.5006 15.96 32.5539 17.96L32.5939 18.88C32.5939 19.8667 32.2606 20.36 31.5939 20.36H31.2739ZM31.1939 29.04C30.5539 29.04 30.0872 28.88 29.7939 28.56C29.5272 28.2133 29.3939 27.72 29.3939 27.08C29.3939 26.3333 29.6606 25.7733 30.1939 25.4C30.7539 25.0267 31.4606 24.84 32.3139 24.84C32.8206 24.84 33.2339 25.0933 33.5539 25.6C33.8739 26.08 34.0339 26.5733 34.0339 27.08C34.0339 27.6133 33.7006 28.08 33.0339 28.48C32.3939 28.8533 31.7806 29.04 31.1939 29.04ZM51.4095 29C51.0629 29.1333 50.7295 29.0533 50.4095 28.76C50.1162 28.4667 49.9562 28.0533 49.9295 27.52C49.8229 26.7467 49.7029 25.8 49.5695 24.68C49.4629 23.56 49.3829 22.7333 49.3295 22.2C49.2762 21.6667 49.1562 20.64 48.9695 19.12C48.8095 17.5733 48.6362 16.24 48.4495 15.12C48.3962 14.7467 48.2229 14.08 47.9295 13.12C47.1562 10.3733 46.7695 8.38667 46.7695 7.16C46.9562 6.89333 47.1429 6.76 47.3295 6.76C48.0229 6.76 48.7429 8.14666 49.4895 10.92C50.2362 13.6933 50.8629 16.8267 51.3695 20.32C51.9029 23.7867 52.1695 26.16 52.1695 27.44C52.1695 27.4933 52.1695 27.6667 52.1695 27.96C52.1695 28.2267 52.1029 28.4533 51.9695 28.64C51.8629 28.8267 51.6762 28.9467 51.4095 29ZM53.222 10.52C53.222 10.4133 53.3554 10.0133 53.622 9.32C53.9154 8.62667 54.062 7.76 54.062 6.72C54.062 6.08 53.982 5.34667 53.822 4.52C53.7954 4.41333 53.782 4.24 53.782 4C53.782 3.49333 53.9154 3.05333 54.182 2.68C54.4754 2.28 54.902 2.08 55.462 2.08C55.8087 2.08 56.0487 2.32 56.182 2.8C56.342 3.25333 56.422 3.93333 56.422 4.84C56.422 5.69333 56.2754 6.6 55.982 7.56C55.6887 8.52 55.3287 9.33333 54.902 10C54.4754 10.64 54.0754 10.96 53.702 10.96C53.382 10.96 53.222 10.8133 53.222 10.52ZM85.8842 29.04C85.4842 29.04 85.2442 28.9333 85.1642 28.72C85.0842 28.48 85.0442 28.12 85.0442 27.64C85.0709 27.4533 85.0842 27.24 85.0842 27C85.0842 26.7333 85.0976 26.5333 85.1242 26.4C85.2842 25.12 85.3642 23.9067 85.3642 22.76C85.3642 20.2267 84.9376 18.2533 84.0842 16.84C83.2309 15.4 81.8842 14.68 80.0442 14.68C79.0309 14.68 78.0176 14.9333 77.0042 15.44C76.0176 15.9467 75.2042 16.5733 74.5642 17.32C73.9509 18.0667 73.6442 18.7467 73.6442 19.36C73.7776 20.1333 74.0176 21.08 74.3642 22.2C74.3909 22.3333 74.4976 22.7467 74.6842 23.44C74.8976 24.1333 75.0042 24.76 75.0042 25.32L75.0442 26.08C75.0442 26.5067 74.8309 26.72 74.4042 26.72C73.8709 26.72 73.4309 26.3733 73.0842 25.68C72.7642 24.9867 72.4042 23.9067 72.0042 22.44C71.6042 21 71.2176 19.8133 70.8442 18.88C70.4709 17.9467 69.9642 17.1467 69.3242 16.48C68.6842 15.8133 67.8709 15.48 66.8842 15.48C65.5242 15.48 64.4576 15.9467 63.6842 16.88C62.9376 17.8133 62.5642 18.96 62.5642 20.32C62.5642 21.2267 62.6442 22.4267 62.8042 23.92C62.9376 25.04 63.0042 26 63.0042 26.8C63.0042 27.28 62.9509 27.64 62.8442 27.88C62.7376 28.12 62.4842 28.24 62.0842 28.24C61.5509 28.24 61.1776 28.0667 60.9642 27.72C60.7509 27.3467 60.6442 26.7867 60.6442 26.04C60.6442 24.5733 60.5642 22.8 60.4042 20.72C60.3776 20.4533 60.3242 19.7733 60.2442 18.68C60.1642 17.56 60.1509 16.44 60.2042 15.32L60.2442 14C60.4042 13.84 60.5909 13.76 60.8042 13.76C61.0976 13.76 61.3376 13.9467 61.5242 14.32C61.7376 14.6667 61.8442 15.2 61.8442 15.92C62.2442 15.2267 62.8309 14.6 63.6042 14.04C64.3776 13.48 65.1909 13.2 66.0442 13.2C67.5109 13.2 68.7242 13.5067 69.6842 14.12C70.6709 14.7067 71.5642 15.6667 72.3642 17C73.1109 15.64 74.2309 14.48 75.7242 13.52C77.2442 12.56 78.8042 12.08 80.4042 12.08C82.0576 12.08 83.4309 12.7067 84.5242 13.96C85.6442 15.2133 86.4576 16.72 86.9642 18.48C87.4976 20.24 87.7642 21.8667 87.7642 23.36C87.7642 24.6933 87.6442 25.9733 87.4042 27.2C87.1909 28.4267 86.6842 29.04 85.8842 29.04ZM114.019 27.48C116.206 27.48 117.899 27.1733 119.099 26.56C120.299 25.9467 120.899 25.0533 120.899 23.88C120.899 22.84 120.539 21.9467 119.819 21.2C119.099 20.4267 118.206 19.7733 117.139 19.24C116.072 18.7067 114.619 18.08 112.779 17.36C112.619 17.3067 112.232 17.16 111.619 16.92C109.112 15.9067 107.179 14.8933 105.819 13.88C104.486 12.8667 103.819 11.56 103.819 9.96C103.819 8.17333 104.526 6.82667 105.939 5.92C107.352 5.01333 109.166 4.56 111.379 4.56C113.006 4.56 114.499 4.77333 115.859 5.2C117.246 5.6 118.339 6.16 119.139 6.88C119.966 7.6 120.379 8.41333 120.379 9.32C120.059 9.48 119.752 9.56 119.459 9.56C119.139 9.56 118.806 9.49333 118.459 9.36C118.139 9.2 117.659 8.94667 117.019 8.6C115.979 8.04 115.006 7.6 114.099 7.28C113.192 6.93333 112.126 6.76 110.899 6.76C109.352 6.76 108.099 7.02667 107.139 7.56C106.179 8.09333 105.699 8.84 105.699 9.8C105.699 10.5467 106.019 11.2267 106.659 11.84C107.326 12.4533 108.152 13 109.139 13.48C110.152 13.9333 111.499 14.48 113.179 15.12C115.312 15.9467 117.072 16.72 118.459 17.44C119.846 18.16 121.019 19.08 121.979 20.2C122.966 21.2933 123.459 22.6 123.459 24.12C123.459 25.9067 122.606 27.2933 120.899 28.28C119.192 29.24 117.072 29.72 114.539 29.72C112.539 29.72 110.566 29.4267 108.619 28.84C106.672 28.2533 105.006 27.3867 103.619 26.24C102.232 25.0667 101.352 23.6667 100.979 22.04C100.979 21.32 101.179 20.7067 101.579 20.2C101.979 19.6667 102.472 19.4 103.059 19.4C103.059 21.1333 103.539 22.6133 104.499 23.84C105.486 25.04 106.806 25.9467 108.459 26.56C110.139 27.1733 111.992 27.48 114.019 27.48ZM136.923 29C134.15 29 131.736 28.52 129.683 27.56C127.656 26.5733 126.643 24.8533 126.643 22.4C126.643 21.52 126.91 20.6667 127.443 19.84C127.976 19.0133 128.763 18.3467 129.803 17.84C130.843 17.3067 132.11 17.04 133.603 17.04C134.75 17.04 135.723 17.0933 136.523 17.2C137.323 17.3067 138.243 17.6 139.283 18.08C140.323 18.56 141.403 19.32 142.523 20.36C142.096 18.52 141.456 16.9067 140.603 15.52C139.75 14.1333 138.79 13.0667 137.723 12.32C136.683 11.5467 135.656 11.16 134.643 11.16C134.163 11.16 133.71 11.2533 133.283 11.44C132.883 11.6 132.39 11.84 131.803 12.16C131.136 12.5867 130.643 12.8 130.323 12.8C130.19 12.8 130.07 12.76 129.963 12.68C129.883 12.5733 129.843 12.4533 129.843 12.32C129.843 11.2533 130.31 10.4267 131.243 9.84C132.203 9.25333 133.363 8.98667 134.723 9.04C136.59 9.14667 138.296 9.94667 139.843 11.44C141.39 12.9067 142.603 14.7333 143.483 16.92C144.39 19.1067 144.843 21.2533 144.843 23.36C144.843 23.7067 144.816 24.2 144.763 24.84L143.483 24.76C142.47 22.7067 141.163 21.2533 139.563 20.4C137.99 19.52 136.403 19.08 134.803 19.08C132.75 19.08 131.283 19.3867 130.403 20C129.523 20.6133 129.083 21.5067 129.083 22.68C129.083 23.9067 129.696 24.8933 130.923 25.64C132.15 26.3867 133.723 26.76 135.643 26.76C136.71 26.76 137.563 26.7067 138.203 26.6C138.843 26.4667 139.51 26.2933 140.203 26.08C140.763 25.8933 141.256 25.76 141.683 25.68C142.11 25.6 142.656 25.56 143.323 25.56C144.07 25.56 144.536 25.6133 144.723 25.72C144.936 25.8267 145.043 26.0667 145.043 26.44C145.043 26.7067 144.496 27.04 143.403 27.44C142.31 27.84 141.083 28.2 139.723 28.52C138.363 28.84 137.43 29 136.923 29ZM174.205 29.04C173.805 29.04 173.565 28.9333 173.485 28.72C173.405 28.48 173.365 28.12 173.365 27.64C173.391 27.4533 173.405 27.24 173.405 27C173.405 26.7333 173.418 26.5333 173.445 26.4C173.605 25.12 173.685 23.9067 173.685 22.76C173.685 20.2267 173.258 18.2533 172.405 16.84C171.551 15.4 170.205 14.68 168.365 14.68C167.351 14.68 166.338 14.9333 165.325 15.44C164.338 15.9467 163.525 16.5733 162.885 17.32C162.271 18.0667 161.965 18.7467 161.965 19.36C162.098 20.1333 162.338 21.08 162.685 22.2C162.711 22.3333 162.818 22.7467 163.005 23.44C163.218 24.1333 163.325 24.76 163.325 25.32L163.365 26.08C163.365 26.5067 163.151 26.72 162.725 26.72C162.191 26.72 161.751 26.3733 161.405 25.68C161.085 24.9867 160.725 23.9067 160.325 22.44C159.925 21 159.538 19.8133 159.165 18.88C158.791 17.9467 158.285 17.1467 157.645 16.48C157.005 15.8133 156.191 15.48 155.205 15.48C153.845 15.48 152.778 15.9467 152.005 16.88C151.258 17.8133 150.885 18.96 150.885 20.32C150.885 21.2267 150.965 22.4267 151.125 23.92C151.258 25.04 151.325 26 151.325 26.8C151.325 27.28 151.271 27.64 151.165 27.88C151.058 28.12 150.805 28.24 150.405 28.24C149.871 28.24 149.498 28.0667 149.285 27.72C149.071 27.3467 148.965 26.7867 148.965 26.04C148.965 24.5733 148.885 22.8 148.725 20.72C148.698 20.4533 148.645 19.7733 148.565 18.68C148.485 17.56 148.471 16.44 148.525 15.32L148.565 14C148.725 13.84 148.911 13.76 149.125 13.76C149.418 13.76 149.658 13.9467 149.845 14.32C150.058 14.6667 150.165 15.2 150.165 15.92C150.565 15.2267 151.151 14.6 151.925 14.04C152.698 13.48 153.511 13.2 154.365 13.2C155.831 13.2 157.045 13.5067 158.005 14.12C158.991 14.7067 159.885 15.6667 160.685 17C161.431 15.64 162.551 14.48 164.045 13.52C165.565 12.56 167.125 12.08 168.725 12.08C170.378 12.08 171.751 12.7067 172.845 13.96C173.965 15.2133 174.778 16.72 175.285 18.48C175.818 20.24 176.085 21.8667 176.085 23.36C176.085 24.6933 175.965 25.9733 175.725 27.2C175.511 28.4267 175.005 29.04 174.205 29.04ZM197.699 28.8C197.219 28.8 196.833 28.6 196.539 28.2C196.273 27.7733 196.033 27.1333 195.819 26.28C195.606 25.4 195.273 23.88 194.819 21.72C194.366 23.5067 193.513 24.9333 192.259 26C191.006 27.04 189.473 27.56 187.659 27.56C186.006 27.56 184.606 26.9867 183.459 25.84C182.339 24.6667 181.499 23.1333 180.939 21.24C180.379 19.32 180.099 17.2533 180.099 15.04C180.099 14.0267 180.193 13.16 180.379 12.44C180.593 11.6933 180.846 11.1333 181.139 10.76C181.459 10.3867 181.766 10.2133 182.059 10.24C182.379 10.24 182.539 10.4533 182.539 10.88C182.539 11.2267 182.446 11.7733 182.259 12.52C182.073 13.3467 181.979 14.2933 181.979 15.36C181.979 16.96 182.206 18.52 182.659 20.04C183.139 21.56 183.833 22.8133 184.739 23.8C185.673 24.76 186.766 25.24 188.019 25.24C189.059 25.24 190.006 24.9333 190.859 24.32C191.713 23.7067 192.379 22.9333 192.859 22C193.366 21.0667 193.619 20.1467 193.619 19.24V12.88C193.913 12.32 194.313 12.04 194.819 12.04C195.273 12.04 195.579 12.4267 195.739 13.2C195.899 13.9733 195.979 15.0667 195.979 16.48C195.979 17.68 195.966 18.6 195.939 19.24C196.099 20.12 196.339 21.0133 196.659 21.92C197.006 22.8267 197.433 23.8533 197.939 25C198.553 26.4133 198.859 27.28 198.859 27.6C198.859 28.4 198.473 28.8 197.699 28.8ZM211.513 29C209.806 29 208.233 28.6667 206.793 28C205.353 27.3333 204.206 26.3867 203.353 25.16C202.499 23.9333 202.073 22.52 202.073 20.92C202.073 19.1333 202.406 17.4667 203.073 15.92C203.739 14.3467 204.713 13.0933 205.993 12.16C207.299 11.2 208.819 10.72 210.553 10.72C212.366 10.72 213.739 11.3067 214.673 12.48C215.606 13.6267 216.046 15.08 215.993 16.84C215.993 18.4133 215.366 19.6133 214.113 20.44C212.886 21.2667 211.313 21.68 209.393 21.68C209.099 21.68 208.659 21.6533 208.073 21.6C207.113 21.4933 206.433 21.3467 206.033 21.16C205.633 20.9733 205.433 20.6 205.433 20.04C205.433 19.8533 205.486 19.72 205.593 19.64C205.699 19.5333 205.913 19.48 206.233 19.48C206.579 19.48 207.193 19.56 208.073 19.72C208.926 19.88 209.686 19.96 210.353 19.96C212.806 19.96 214.033 18.8933 214.033 16.76C214.033 15.48 213.793 14.4667 213.313 13.72C212.859 12.9733 212.046 12.6 210.873 12.6C209.593 12.6 208.446 12.9467 207.433 13.64C206.419 14.3067 205.633 15.1867 205.073 16.28C204.539 17.3733 204.273 18.5333 204.273 19.76C204.273 21.8667 204.859 23.6 206.033 24.96C207.206 26.2933 209.019 26.96 211.473 26.96C211.766 26.96 212.259 26.9333 212.953 26.88C213.246 26.8533 213.606 26.7733 214.033 26.64C214.459 26.5067 214.766 26.4133 214.953 26.36C216.099 25.96 216.939 25.76 217.473 25.76C217.873 25.76 218.179 25.8667 218.393 26.08C217.726 27.0933 216.726 27.84 215.393 28.32C214.086 28.7733 212.793 29 211.513 29ZM222.202 28.72C221.616 25.8133 221.162 22.3733 220.842 18.4C220.549 14.4 220.402 10.5333 220.402 6.8C220.402 4.93333 220.442 3.28 220.522 1.84C220.522 1.49333 220.789 1.32 221.322 1.32C221.749 1.32 222.016 1.42667 222.122 1.64C222.256 1.85333 222.322 2.18666 222.322 2.64C222.322 6.96 222.402 10.6533 222.562 13.72C222.722 16.76 222.936 20.04 223.202 23.56C223.362 25.8267 223.469 27.36 223.522 28.16C223.549 28.5867 223.322 28.8 222.842 28.8C222.682 28.8 222.469 28.7733 222.202 28.72ZM255.481 12.52C255.481 13.6667 255.534 14.7867 255.641 15.88C255.774 16.9467 255.974 18.4533 256.241 20.4C256.748 23.68 257.001 26.2933 257.001 28.24C257.001 28.64 256.921 28.88 256.761 28.96C256.601 29.04 256.414 29.08 256.201 29.08C255.988 29.08 255.841 29.08 255.761 29.08C255.388 29.08 255.094 29.04 254.881 28.96C254.668 28.8533 254.494 28.6133 254.361 28.24L253.521 17.36C253.441 16.2667 253.334 14.0667 253.201 10.76C252.054 12.0933 250.921 13.1067 249.801 13.8C248.681 14.4667 247.534 14.8 246.361 14.8C244.681 14.8 243.001 13.6133 241.321 11.24C241.401 11.64 241.441 12.1733 241.441 12.84C241.441 13.5067 241.441 13.8933 241.441 14L241.401 27.08C241.401 27.3467 241.254 27.56 240.961 27.72C240.694 27.8533 240.414 27.92 240.121 27.92C239.748 27.92 239.481 27.7867 239.321 27.52C239.188 27.2267 239.081 26.84 239.001 26.36V20.76C239.001 19.9067 239.028 18.9467 239.081 17.88C239.134 16.8133 239.174 16.0667 239.201 15.64C239.334 13.7733 239.401 12.08 239.401 10.56C239.401 10.1067 239.321 9.68 239.161 9.28C239.001 8.85333 238.761 8.38667 238.441 7.88C238.121 7.37333 237.881 6.93333 237.721 6.56C237.588 6.18666 237.521 5.78667 237.521 5.36C237.521 4.85333 237.774 4.6 238.281 4.6C239.081 4.6 239.734 4.89333 240.241 5.48C240.748 6.04 241.294 6.89333 241.881 8.04C242.388 8.97333 242.828 9.70667 243.201 10.24C243.574 10.7733 244.054 11.24 244.641 11.64C245.228 12.0133 245.934 12.2 246.761 12.2C247.961 12.2533 248.948 12.0267 249.721 11.52C250.494 10.9867 251.081 10.3467 251.481 9.6C251.881 8.85333 252.268 7.94667 252.641 6.88C252.961 6 253.241 5.38667 253.481 5.04C253.721 4.66667 254.014 4.52 254.361 4.6C255.161 4.54667 255.561 5.28 255.561 6.8C255.561 8.08 255.548 9.02667 255.521 9.64L255.481 12.52ZM269.298 29.04C267.725 29.04 266.298 28.6933 265.018 28C263.765 27.28 262.778 26.2933 262.058 25.04C261.365 23.76 261.018 22.3067 261.018 20.68C261.018 18.0133 261.991 16.0267 263.938 14.72C265.911 13.4133 268.325 12.76 271.178 12.76C272.485 12.76 273.698 13.08 274.818 13.72C275.965 14.36 276.885 15.28 277.578 16.48C278.271 17.68 278.618 19.0667 278.618 20.64C278.618 22.3467 278.178 23.84 277.298 25.12C276.418 26.3733 275.258 27.3467 273.818 28.04C272.405 28.7067 270.898 29.04 269.298 29.04ZM268.858 26.76C271.338 26.76 273.218 26.2 274.498 25.08C275.778 23.96 276.418 22.32 276.418 20.16C276.418 18.6933 275.911 17.4267 274.898 16.36C273.911 15.2933 272.525 14.76 270.738 14.76C269.538 14.76 268.325 14.9867 267.098 15.44C265.871 15.8933 264.858 16.5733 264.058 17.48C263.258 18.3867 262.858 19.48 262.858 20.76C262.858 21.8267 263.125 22.8267 263.658 23.76C264.191 24.6667 264.911 25.4 265.818 25.96C266.751 26.4933 267.765 26.76 268.858 26.76ZM288.239 29C287.973 29.0533 287.799 29.08 287.719 29.08C286.893 29.08 286.319 28.4667 285.999 27.24C285.706 26.0133 285.559 24.2933 285.559 22.08C285.559 21.1733 285.586 19.76 285.639 17.84C285.693 16.6667 285.719 15.7867 285.719 15.2C282.439 15.2 280.799 14.8267 280.799 14.08C280.799 13.84 280.826 13.6533 280.879 13.52C280.959 13.3867 281.119 13.32 281.359 13.32L285.719 13.04C285.693 11.7333 285.626 10.3067 285.519 8.76C285.413 7.37333 285.346 6.09333 285.319 4.92C285.319 4.62666 285.439 4.42667 285.679 4.32C285.919 4.18667 286.173 4.12 286.439 4.12C286.759 4.12 287.026 4.29333 287.239 4.64C287.453 4.96 287.559 5.29333 287.559 5.64L287.839 12.96L291.159 13.12C291.666 13.0667 292.093 13.16 292.439 13.4C292.813 13.64 293.013 14.04 293.039 14.6C292.479 14.84 291.866 14.9867 291.199 15.04C290.533 15.0933 289.413 15.12 287.839 15.12C287.839 17.6 287.959 21.68 288.199 27.36C288.199 27.9467 288.199 28.36 288.199 28.6C288.226 28.8133 288.239 28.9467 288.239 29ZM301.677 29C301.41 29.0533 301.237 29.08 301.157 29.08C300.33 29.08 299.757 28.4667 299.437 27.24C299.143 26.0133 298.997 24.2933 298.997 22.08C298.997 21.1733 299.023 19.76 299.077 17.84C299.13 16.6667 299.157 15.7867 299.157 15.2C295.877 15.2 294.237 14.8267 294.237 14.08C294.237 13.84 294.263 13.6533 294.317 13.52C294.397 13.3867 294.557 13.32 294.797 13.32L299.157 13.04C299.13 11.7333 299.063 10.3067 298.957 8.76C298.85 7.37333 298.783 6.09333 298.757 4.92C298.757 4.62666 298.877 4.42667 299.117 4.32C299.357 4.18667 299.61 4.12 299.877 4.12C300.197 4.12 300.463 4.29333 300.677 4.64C300.89 4.96 300.997 5.29333 300.997 5.64L301.277 12.96L304.597 13.12C305.103 13.0667 305.53 13.16 305.877 13.4C306.25 13.64 306.45 14.04 306.477 14.6C305.917 14.84 305.303 14.9867 304.637 15.04C303.97 15.0933 302.85 15.12 301.277 15.12C301.277 17.6 301.397 21.68 301.637 27.36C301.637 27.9467 301.637 28.36 301.637 28.6C301.663 28.8133 301.677 28.9467 301.677 29ZM318.954 29C316.181 29 313.768 28.52 311.714 27.56C309.688 26.5733 308.674 24.8533 308.674 22.4C308.674 21.52 308.941 20.6667 309.474 19.84C310.008 19.0133 310.794 18.3467 311.834 17.84C312.874 17.3067 314.141 17.04 315.634 17.04C316.781 17.04 317.754 17.0933 318.554 17.2C319.354 17.3067 320.274 17.6 321.314 18.08C322.354 18.56 323.434 19.32 324.554 20.36C324.128 18.52 323.488 16.9067 322.634 15.52C321.781 14.1333 320.821 13.0667 319.754 12.32C318.714 11.5467 317.688 11.16 316.674 11.16C316.194 11.16 315.741 11.2533 315.314 11.44C314.914 11.6 314.421 11.84 313.834 12.16C313.168 12.5867 312.674 12.8 312.354 12.8C312.221 12.8 312.101 12.76 311.994 12.68C311.914 12.5733 311.874 12.4533 311.874 12.32C311.874 11.2533 312.341 10.4267 313.274 9.84C314.234 9.25333 315.394 8.98667 316.754 9.04C318.621 9.14667 320.328 9.94667 321.874 11.44C323.421 12.9067 324.634 14.7333 325.514 16.92C326.421 19.1067 326.874 21.2533 326.874 23.36C326.874 23.7067 326.848 24.2 326.794 24.84L325.514 24.76C324.501 22.7067 323.194 21.2533 321.594 20.4C320.021 19.52 318.434 19.08 316.834 19.08C314.781 19.08 313.314 19.3867 312.434 20C311.554 20.6133 311.114 21.5067 311.114 22.68C311.114 23.9067 311.728 24.8933 312.954 25.64C314.181 26.3867 315.754 26.76 317.674 26.76C318.741 26.76 319.594 26.7067 320.234 26.6C320.874 26.4667 321.541 26.2933 322.234 26.08C322.794 25.8933 323.288 25.76 323.714 25.68C324.141 25.6 324.688 25.56 325.354 25.56C326.101 25.56 326.568 25.6133 326.754 25.72C326.968 25.8267 327.074 26.0667 327.074 26.44C327.074 26.7067 326.528 27.04 325.434 27.44C324.341 27.84 323.114 28.2 321.754 28.52C320.394 28.84 319.461 29 318.954 29Z" fill="#61DBFB"/>
<path d="M38.1143 70.056C37.7303 69.8427 37.5169 69.608 37.4743 69.352C37.4529 69.096 37.6023 68.648 37.9223 68.008C38.2423 67.368 38.7436 66.376 39.4263 65.032C39.9383 64.072 40.3223 63.3253 40.5783 62.792C40.8556 62.2373 41.0369 61.8427 41.1223 61.608C41.2289 61.3733 41.2823 61.224 41.2823 61.16C41.2396 60.968 41.2609 60.8187 41.3463 60.712C41.4316 60.584 41.5703 60.4773 41.7623 60.392C41.8689 60.2853 42.0396 60.0933 42.2743 59.816C42.5303 59.5387 42.7649 59.208 42.9783 58.824C43.1703 58.376 43.3943 57.9173 43.6503 57.448C43.9063 56.9787 44.2476 56.392 44.6743 55.688C45.1009 54.9627 45.6556 54.024 46.3383 52.872C46.7649 52.1253 47.2343 51.368 47.7463 50.6C48.2583 49.8107 48.8023 49.032 49.3783 48.264C49.6129 47.9653 49.8263 47.7307 50.0183 47.56C50.2103 47.368 50.4023 47.2827 50.5943 47.304C50.8503 47.304 51.1383 47.3893 51.4583 47.56C51.7996 47.7307 52.1089 47.9547 52.3863 48.232C52.6636 48.5093 52.8663 48.808 52.9943 49.128C53.1009 49.2987 53.1436 49.6613 53.1223 50.216C53.1009 50.7707 53.0583 51.4427 52.9943 52.232C52.9303 53.0213 52.8556 53.864 52.7703 54.76C52.7063 55.6347 52.6103 56.6693 52.4823 57.864C52.3543 59.0587 52.2263 60.3067 52.0983 61.608C51.9916 62.9093 51.9063 64.168 51.8423 65.384C51.7783 66.5787 51.7783 67.624 51.8423 68.52C51.8636 68.712 51.8636 68.8933 51.8423 69.064C51.8209 69.2347 51.8103 69.3733 51.8103 69.48C51.6823 69.608 51.4689 69.6613 51.1703 69.64C50.8929 69.64 50.6156 69.576 50.3383 69.448C50.0823 69.32 49.9329 69.16 49.8903 68.968C49.8263 68.904 49.7836 68.8187 49.7623 68.712C49.7623 68.584 49.7729 68.328 49.7943 67.944C49.8156 67.56 49.8369 66.952 49.8583 66.12L50.0183 60.936L49.6023 60.968C49.4103 60.968 49.0476 60.9893 48.5143 61.032C47.9809 61.0747 47.4049 61.1387 46.7863 61.224C46.1676 61.288 45.5916 61.3627 45.0583 61.448C44.5463 61.512 44.1943 61.576 44.0023 61.64C43.8103 61.64 43.5756 61.768 43.2983 62.024C43.0423 62.28 42.7969 62.6107 42.5623 63.016C42.4769 63.3147 42.3169 63.6347 42.0823 63.976C41.8689 64.296 41.7623 64.5093 41.7623 64.616C41.6129 64.7227 41.4849 64.8507 41.3783 65C41.2929 65.1493 41.2503 65.224 41.2503 65.224C41.2503 65.352 41.1436 65.672 40.9303 66.184C40.7383 66.6747 40.4929 67.2293 40.1943 67.848C39.8956 68.4453 39.5969 68.968 39.2983 69.416L38.6263 70.44L38.1143 70.056ZM44.7383 59.752C44.7383 59.752 44.8449 59.7307 45.0583 59.688C45.2929 59.6453 45.5596 59.6027 45.8583 59.56C46.1783 59.496 46.4663 59.464 46.7223 59.464C47.6183 59.2507 48.2689 59.112 48.6743 59.048C49.0796 58.9627 49.3569 58.92 49.5063 58.92C49.6769 58.92 49.8263 58.952 49.9543 59.016C50.0396 59.1227 50.1143 59.1867 50.1783 59.208C50.2636 59.2293 50.3063 59.24 50.3063 59.24C50.3276 59.1973 50.3596 58.952 50.4023 58.504C50.4449 58.056 50.4983 57.5013 50.5623 56.84C50.6476 56.1787 50.7223 55.496 50.7863 54.792C50.8716 54.0667 50.9356 53.4053 50.9783 52.808C51.0209 52.1893 51.0529 51.72 51.0743 51.4C51.0956 50.9947 51.1169 50.632 51.1383 50.312C51.1596 49.9707 51.1703 49.8 51.1703 49.8C51.0423 49.8 50.7649 50.0347 50.3383 50.504C49.9329 50.9733 49.4743 51.592 48.9623 52.36C48.4503 53.128 47.9703 53.9493 47.5223 54.824C47.3089 55.2293 47.1063 55.592 46.9143 55.912C46.7223 56.232 46.5729 56.392 46.4663 56.392C46.4236 56.4347 46.2956 56.6267 46.0823 56.968C45.8903 57.288 45.6769 57.6613 45.4423 58.088C45.2076 58.4933 45.0156 58.8667 44.8663 59.208C44.7169 59.528 44.6743 59.7093 44.7383 59.752ZM66.1843 67.528C65.7576 67.528 65.4056 67.4427 65.1283 67.272C64.8509 67.08 64.6163 66.7707 64.4243 66.344C64.3389 66.0453 64.2643 65.7147 64.2003 65.352C64.1576 64.968 64.1363 64.616 64.1363 64.296C64.1363 63.9547 64.1683 63.7307 64.2323 63.624C64.3176 63.5387 64.3496 63.3893 64.3283 63.176C64.3283 62.9413 64.3283 62.696 64.3283 62.44C64.3069 62.0133 64.2003 61.7787 64.0083 61.736C63.8376 61.672 63.5816 61.736 63.2403 61.928C62.8563 62.1627 62.3549 62.4827 61.7363 62.888C61.1176 63.272 60.4669 63.6987 59.7843 64.168C59.1229 64.6373 58.4936 65.128 57.8963 65.64C57.4269 66.152 57.1389 66.5467 57.0323 66.824C56.9469 67.08 56.8189 67.208 56.6483 67.208C56.4776 67.2933 56.3283 67.304 56.2003 67.24C56.0936 67.1547 55.9336 67.0267 55.7203 66.856C55.5709 66.6853 55.4216 66.5253 55.2723 66.376C55.1229 66.2053 55.0269 66.0773 54.9843 65.992C54.9843 65.8853 55.0163 65.6613 55.0803 65.32C55.1443 64.9787 55.2189 64.6373 55.3043 64.296C55.4109 63.9547 55.4856 63.7307 55.5283 63.624C55.6349 63.624 55.7203 63.5173 55.7843 63.304C55.8696 63.0907 55.9976 62.856 56.1683 62.6C56.2109 62.344 56.3176 62.0027 56.4883 61.576C56.6803 61.128 56.8509 60.7333 57.0003 60.392C57.2989 59.88 57.5016 59.4533 57.6083 59.112C57.7363 58.7707 57.8216 58.344 57.8643 57.832C57.8429 57.7467 57.8643 57.672 57.9283 57.608C57.9923 57.5227 58.0669 57.48 58.1523 57.48C58.3229 57.3093 58.5256 57.2667 58.7603 57.352C58.9949 57.416 59.2083 57.576 59.4003 57.832C59.7843 58.344 59.9336 58.8773 59.8483 59.432C59.7843 59.9653 59.4429 60.7333 58.8243 61.736C58.6749 62.0773 58.5576 62.344 58.4723 62.536C58.4083 62.7067 58.3763 62.8453 58.3763 62.952C58.3763 62.952 58.4829 62.8773 58.6963 62.728C58.9309 62.5787 59.1869 62.408 59.4643 62.216C59.7629 62.0027 59.9976 61.8427 60.1683 61.736C60.2749 61.6293 60.5203 61.4373 60.9043 61.16C61.2883 60.8827 61.6936 60.616 62.1203 60.36C62.5683 60.0827 62.8989 59.9227 63.1123 59.88C63.2829 59.7947 63.4643 59.72 63.6563 59.656C63.8483 59.5707 63.9869 59.528 64.0723 59.528C64.2429 59.528 64.4563 59.624 64.7123 59.816C64.9896 59.9867 65.2456 60.2 65.4803 60.456C65.7149 60.6907 65.8536 60.8933 65.8963 61.064C65.8963 61.1493 65.8963 61.2347 65.8963 61.32C65.9176 61.4053 65.9389 61.4907 65.9603 61.576C66.0456 61.8533 66.0883 62.2267 66.0883 62.696C66.1096 63.1653 66.0989 63.592 66.0563 63.976C66.0136 64.36 65.9389 64.584 65.8323 64.648C65.8323 64.648 65.8323 64.68 65.8323 64.744C65.8536 64.7867 65.9069 64.808 65.9923 64.808C65.9923 64.8933 65.9923 64.9467 65.9923 64.968C65.8856 64.968 65.8429 65.064 65.8643 65.256C65.8856 65.4267 65.9496 65.6187 66.0563 65.832C66.1843 66.0453 66.3123 66.216 66.4403 66.344C66.6963 66.6 66.8029 66.8453 66.7603 67.08C66.7176 67.2933 66.5256 67.4427 66.1843 67.528ZM77.4545 68.68C77.3692 68.68 77.2412 68.6693 77.0705 68.648C76.9212 68.6053 76.7932 68.5093 76.6865 68.36C76.3665 67.976 76.1638 67.656 76.0785 67.4C75.9932 67.144 75.9825 66.7707 76.0465 66.28C76.0892 65.96 76.1105 65.6827 76.1105 65.448C76.1318 65.192 76.1532 64.9787 76.1745 64.808C76.0892 64.7227 75.9292 64.7867 75.6945 65C75.4812 65.192 75.1825 65.4373 74.7985 65.736C74.0732 66.568 73.4225 67.208 72.8465 67.656C72.2918 68.0827 71.7905 68.3707 71.3425 68.52C70.8945 68.648 70.4678 68.6907 70.0625 68.648C69.6998 68.6053 69.4118 68.456 69.1985 68.2C68.9852 67.9227 68.8465 67.5707 68.7825 67.144C68.7398 66.7173 68.7398 66.2587 68.7825 65.768C68.8678 65.064 69.0172 64.392 69.2305 63.752C69.4652 63.112 69.8385 62.3973 70.3505 61.608C70.5852 61.1813 70.8945 60.7653 71.2785 60.36C71.6838 59.9333 72.1212 59.56 72.5905 59.24C73.0812 58.8987 73.5505 58.6533 73.9985 58.504C74.4892 58.312 74.9905 58.2053 75.5025 58.184C76.0145 58.1413 76.4732 58.184 76.8785 58.312C77.1345 58.44 77.3372 58.504 77.4865 58.504C77.6572 58.504 77.7852 58.3973 77.8705 58.184C77.9772 58.0133 78.0838 57.7573 78.1905 57.416C78.2972 57.0533 78.4252 56.744 78.5745 56.488L79.2785 54.408C79.5132 53.832 79.7692 53.224 80.0465 52.584C80.3238 51.944 80.6545 51.1653 81.0385 50.248C81.4012 49.5653 81.6998 49.1707 81.9345 49.064C82.1692 48.936 82.4358 49.0213 82.7345 49.32C82.9692 49.5973 83.0545 49.9173 82.9905 50.28C82.9265 50.6213 82.7345 51.176 82.4145 51.944C82.2652 52.1787 82.1372 52.4027 82.0305 52.616C81.9238 52.808 81.7745 53.1173 81.5825 53.544C81.3052 54.2053 81.0492 54.8027 80.8145 55.336C80.5798 55.848 80.3345 56.4347 80.0785 57.096C79.9932 57.4373 79.8758 57.832 79.7265 58.28C79.5985 58.728 79.4918 59.1333 79.4065 59.496C79.3425 59.8373 79.2678 60.1573 79.1825 60.456C79.1185 60.7333 79.0438 60.872 78.9585 60.872C78.7878 61.064 78.6278 61.4053 78.4785 61.896C78.3292 62.3653 78.2012 62.856 78.0945 63.368C78.0092 63.88 77.9345 64.3067 77.8705 64.648C77.8278 64.904 77.7958 65.2347 77.7745 65.64C77.7532 66.0453 77.7425 66.44 77.7425 66.824C77.7425 67.1867 77.7425 67.4427 77.7425 67.592C77.7425 68.0613 77.7318 68.36 77.7105 68.488C77.6892 68.616 77.6038 68.68 77.4545 68.68ZM70.6385 66.664C71.0865 66.664 71.5558 66.472 72.0465 66.088C72.5585 65.704 73.0705 65.2773 73.5825 64.808C73.9025 64.5093 74.2438 64.1147 74.6065 63.624C74.9905 63.1333 75.3532 62.6427 75.6945 62.152C76.0572 61.6613 76.3452 61.2347 76.5585 60.872C76.7718 60.488 76.8785 60.2533 76.8785 60.168C76.8785 60.0613 76.7825 59.9867 76.5905 59.944C76.3985 59.9013 76.1745 59.88 75.9185 59.88C75.6838 59.8587 75.4918 59.8693 75.3425 59.912C74.8732 60.0187 74.4038 60.232 73.9345 60.552C73.4865 60.872 72.9958 61.352 72.4625 61.992C71.9078 62.6747 71.4492 63.3787 71.0865 64.104C70.7452 64.8293 70.5318 65.4373 70.4465 65.928C70.3612 66.4187 70.4252 66.664 70.6385 66.664ZM92.519 68.552C91.4523 68.552 90.6737 68.168 90.183 67.4C90.0337 67.1867 89.959 66.9733 89.959 66.76C89.9803 66.5253 90.0443 66.3653 90.151 66.28C90.279 66.1947 90.4283 66.2693 90.599 66.504C90.8977 66.6747 91.3243 66.76 91.879 66.76C92.1563 66.76 92.4443 66.7387 92.743 66.696C93.0417 66.632 93.3403 66.5467 93.639 66.44C93.959 66.2907 94.1723 66.1627 94.279 66.056C94.3857 65.928 94.3643 65.8213 94.215 65.736H94.247C93.6923 65.5867 93.127 65.352 92.551 65.032C91.9963 64.6907 91.5163 64.328 91.111 63.944C90.7057 63.5387 90.471 63.176 90.407 62.856C90.2363 62.1947 90.279 61.5227 90.535 60.84C90.791 60.136 91.1537 59.5173 91.623 58.984C91.7937 58.8773 92.007 58.7493 92.263 58.6C92.519 58.4293 92.7217 58.3333 92.871 58.312V58.344C93.2763 57.9173 93.767 57.576 94.343 57.32C94.9403 57.064 95.5697 56.8293 96.231 56.616L96.711 56.552C96.967 56.5093 97.1803 56.488 97.351 56.488C97.3297 56.488 97.3723 56.5093 97.479 56.552C97.5857 56.5733 97.6817 56.5947 97.767 56.616C97.895 56.68 98.0017 56.712 98.087 56.712C98.3643 56.7547 98.6203 56.8827 98.855 57.096C99.0897 57.3093 99.271 57.5653 99.399 57.864C99.5483 58.1413 99.6017 58.408 99.559 58.664C99.5163 59.0693 99.3883 59.432 99.175 59.752C98.983 60.072 98.7483 60.2533 98.471 60.296C98.5137 60.2747 98.4817 60.2427 98.375 60.2C98.2897 60.136 98.1937 60.072 98.087 60.008L97.991 60.072C97.991 60.072 97.9803 60.0507 97.959 60.008C97.959 59.944 97.9377 59.8693 97.895 59.784C97.831 59.656 97.799 59.5173 97.799 59.368C97.799 59.1973 97.8097 59.016 97.831 58.824C97.8737 58.5893 97.8737 58.4507 97.831 58.408C97.8097 58.3653 97.671 58.3333 97.415 58.312C97.1163 58.248 96.679 58.3013 96.103 58.472C95.5483 58.6427 95.079 58.8773 94.695 59.176C94.2257 59.4747 93.831 59.7627 93.511 60.04C93.191 60.296 92.935 60.552 92.743 60.808C92.551 61.0427 92.3803 61.32 92.231 61.64C92.1243 61.7893 92.0283 61.9387 91.943 62.088C91.879 62.216 91.847 62.3333 91.847 62.44C91.847 62.6747 92.0177 62.92 92.359 63.176C92.7217 63.4107 93.255 63.688 93.959 64.008C94.5137 64.2427 94.983 64.4987 95.367 64.776C95.751 65.0533 96.0177 65.3733 96.167 65.736C96.2097 65.8213 96.2203 65.928 96.199 66.056C96.199 66.1627 96.1777 66.2373 96.135 66.28C96.1777 66.3227 96.199 66.3547 96.199 66.376V66.344C96.3697 66.6 96.3697 66.8667 96.199 67.144C96.0497 67.4213 95.783 67.6667 95.399 67.88C95.0363 68.072 94.5883 68.2213 94.055 68.328H94.087C93.8097 68.4133 93.5323 68.4773 93.255 68.52C92.999 68.5413 92.7537 68.552 92.519 68.552ZM102.689 68.52C102.412 68.52 102.188 68.4667 102.017 68.36C101.868 68.2533 101.676 68.104 101.441 67.912C101.036 67.4853 100.748 67.08 100.577 66.696C100.407 66.2907 100.353 65.9067 100.417 65.544C100.481 65.3733 100.503 65.2133 100.481 65.064C100.481 64.8933 100.481 64.808 100.481 64.808C100.375 64.7013 100.343 64.6373 100.385 64.616C100.428 64.5733 100.471 64.5093 100.513 64.424C100.641 64.424 100.684 64.3067 100.641 64.072C100.599 63.9013 100.684 63.528 100.897 62.952C101.111 62.376 101.377 61.832 101.697 61.32C101.825 61.1067 102.017 60.8293 102.273 60.488C102.529 60.1253 102.807 59.7733 103.105 59.432C103.425 59.0693 103.713 58.7813 103.969 58.568C104.503 58.12 104.972 57.7893 105.377 57.576C105.783 57.3627 106.22 57.2027 106.689 57.096C107.159 56.9893 107.479 56.936 107.649 56.936C107.841 56.936 108.097 57.1067 108.417 57.448C108.908 57.6613 109.26 57.9173 109.473 58.216C109.708 58.5147 109.857 58.952 109.921 59.528C109.985 60.168 109.932 60.904 109.761 61.736C109.612 62.5467 109.111 63.56 108.257 64.776C107.724 65.544 107.233 66.12 106.785 66.504C106.337 66.8667 105.804 67.2293 105.185 67.592C104.737 67.8907 104.332 68.1147 103.969 68.264C103.607 68.392 103.18 68.4773 102.689 68.52ZM105.761 65.128C106.273 64.552 106.679 64.008 106.977 63.496C107.297 62.984 107.596 62.3333 107.873 61.544C107.959 61.3093 108.012 61.0213 108.033 60.68C108.055 60.3173 108.044 59.9867 108.001 59.688C107.98 59.368 107.905 59.1867 107.777 59.144C107.521 58.9947 107.212 58.952 106.849 59.016C106.487 59.0587 106.092 59.2613 105.665 59.624C105.004 60.1787 104.428 60.872 103.937 61.704C103.447 62.5147 102.967 63.4427 102.497 64.488C102.177 65.256 102.103 65.8747 102.273 66.344C102.465 66.792 102.86 66.952 103.457 66.824C104.076 66.6747 104.844 66.1093 105.761 65.128ZM126.194 67.656C126.088 67.6133 125.928 67.5067 125.715 67.336C125.501 67.1653 125.32 66.8773 125.171 66.472C125.021 66.0453 124.947 65.4587 124.947 64.712C124.968 64.072 124.979 63.5707 124.979 63.208C125 62.8453 124.925 62.664 124.755 62.664C124.584 62.664 124.253 62.8347 123.763 63.176C123.293 63.496 122.749 63.9333 122.131 64.488C121.512 65.0427 120.883 65.6613 120.243 66.344C120.029 66.5787 119.816 66.8027 119.603 67.016C119.411 67.208 119.219 67.336 119.027 67.4C118.835 67.4427 118.611 67.368 118.355 67.176L118.003 66.888C117.896 66.7813 117.832 66.6747 117.811 66.568C117.789 66.44 117.8 66.3013 117.843 66.152L118.579 64.04C118.92 63.272 119.155 62.7173 119.283 62.376C119.411 62.0133 119.475 61.7893 119.475 61.704C119.475 61.5973 119.443 61.5547 119.379 61.576C119.208 61.5973 118.952 61.704 118.611 61.896C118.269 62.0667 118.045 62.2373 117.939 62.408C117.853 62.408 117.725 62.504 117.555 62.696C117.384 62.888 117.171 63.0693 116.915 63.24C116.765 63.496 116.467 63.8267 116.019 64.232C115.592 64.6373 115.165 65.0533 114.739 65.48C114.461 65.7147 114.184 66.0027 113.907 66.344C113.651 66.6853 113.427 66.984 113.235 67.24C113.064 67.496 112.947 67.624 112.883 67.624C112.605 67.624 112.349 67.5493 112.115 67.4C111.901 67.2507 111.741 67.0053 111.635 66.664C111.464 66.3013 111.464 65.8 111.635 65.16C111.805 64.4987 111.997 63.6453 112.211 62.6C112.296 62.28 112.349 62.0453 112.371 61.896C112.392 61.7467 112.424 61.5973 112.467 61.448C112.531 61.2773 112.627 61.0213 112.755 60.68C112.904 60.3387 113.128 59.8267 113.427 59.144C113.576 58.7387 113.661 58.44 113.683 58.248C113.725 58.0347 113.747 57.8853 113.747 57.8C113.747 57.5867 113.8 57.4053 113.907 57.256C114.035 57.1067 114.184 57 114.355 56.936C114.525 56.872 114.685 56.8613 114.835 56.904C115.069 56.9467 115.272 57.064 115.443 57.256C115.635 57.448 115.741 57.7147 115.763 58.056C115.784 58.312 115.763 58.5467 115.699 58.76C115.635 58.952 115.571 59.1333 115.507 59.304L115.155 60.168C115.048 60.4027 114.909 60.744 114.739 61.192C114.568 61.64 114.419 62.056 114.291 62.44C114.163 62.8027 114.099 63.016 114.099 63.08C114.12 63.144 114.195 63.1333 114.323 63.048C114.451 62.9413 114.611 62.8027 114.803 62.632C115.016 62.44 115.229 62.2587 115.443 62.088C115.891 61.6613 116.392 61.256 116.947 60.872C117.523 60.4667 118.067 60.1253 118.579 59.848C119.091 59.5707 119.485 59.3893 119.763 59.304C120.125 59.304 120.371 59.368 120.499 59.496C120.648 59.624 120.893 59.8587 121.235 60.2C121.384 60.3493 121.469 60.5413 121.491 60.776C121.512 61.0107 121.501 61.2347 121.459 61.448C121.437 61.5333 121.373 61.7467 121.267 62.088C121.16 62.408 121.053 62.7173 120.947 63.016C120.861 63.3147 120.819 63.464 120.819 63.464C120.819 63.464 120.936 63.3573 121.171 63.144C121.427 62.9307 121.704 62.7067 122.003 62.472C122.301 62.216 122.525 62.024 122.675 61.896C123.507 61.256 124.232 60.8507 124.851 60.68C125.469 60.5093 125.971 60.7333 126.355 61.352C126.611 61.5867 126.739 61.8427 126.739 62.12C126.76 62.3973 126.771 62.8773 126.771 63.56C126.792 63.8373 126.813 64.168 126.835 64.552C126.856 64.936 126.877 65.288 126.899 65.608C126.941 65.9067 126.984 66.088 127.027 66.152C127.091 66.2373 127.208 66.312 127.378 66.376C127.571 66.4187 127.816 66.4613 128.115 66.504C128.435 66.5467 128.627 66.6853 128.691 66.92C128.755 67.1547 128.616 67.3787 128.275 67.592C127.955 67.784 127.603 67.8693 127.219 67.848C126.834 67.8267 126.493 67.7627 126.194 67.656ZM132.741 69.096C131.802 69.096 131.034 68.744 130.437 68.04C129.839 67.3147 129.551 66.4187 129.573 65.352C129.615 64.584 129.765 63.7627 130.021 62.888C130.298 61.992 130.661 61.1387 131.109 60.328C131.557 59.496 132.047 58.7707 132.581 58.152C133.114 57.5333 133.669 57.096 134.245 56.84C134.458 56.7333 134.682 56.648 134.917 56.584C135.173 56.52 135.429 56.488 135.685 56.488C135.919 56.488 136.165 56.5307 136.421 56.616C136.677 56.68 136.89 56.7547 137.061 56.84C137.423 56.9893 137.701 57.1707 137.893 57.384C138.085 57.5973 138.255 57.928 138.405 58.376C138.469 58.7813 138.501 59.0693 138.501 59.24C138.501 59.4107 138.447 59.6667 138.341 60.008C138.085 60.776 137.754 61.4373 137.349 61.992C136.943 62.5467 136.399 63.016 135.717 63.4C135.546 63.5067 135.343 63.592 135.109 63.656C134.895 63.6987 134.671 63.72 134.437 63.72C134.01 63.72 133.594 63.6453 133.189 63.496C132.805 63.3253 132.495 63.08 132.261 62.76L132.037 62.504L131.941 62.76C131.727 63.336 131.557 63.8693 131.429 64.36C131.322 64.8507 131.269 65.2987 131.269 65.704C131.269 65.96 131.29 66.2053 131.333 66.44C131.397 66.6747 131.482 66.8773 131.589 67.048C131.674 67.176 131.813 67.272 132.005 67.336C132.218 67.3787 132.442 67.4 132.677 67.4C132.826 67.4 132.975 67.4 133.125 67.4C133.295 67.3787 133.455 67.336 133.605 67.272C133.967 67.144 134.255 67.0053 134.469 66.856C134.703 66.7067 134.938 66.5467 135.173 66.376L135.301 66.312H135.269C135.525 66.184 135.749 66.056 135.941 65.928C136.154 65.8 136.261 65.736 136.261 65.736C136.346 65.736 136.431 65.6827 136.517 65.576C136.687 65.4907 136.901 65.5227 137.157 65.672C137.434 65.8213 137.573 66.0133 137.573 66.248C137.551 66.3547 137.455 66.5253 137.285 66.76C137.114 66.9733 136.922 67.176 136.709 67.368C136.517 67.56 136.357 67.6667 136.229 67.688C136.207 67.7093 136.133 67.752 136.005 67.816C135.877 67.8587 135.791 67.9013 135.749 67.944H135.781C135.589 68.2 135.397 68.328 135.205 68.328H134.949C134.863 68.4773 134.586 68.648 134.117 68.84C133.647 69.0107 133.189 69.096 132.741 69.096ZM134.181 62.056C134.565 62.056 134.895 61.9493 135.173 61.736C135.471 61.5013 135.727 61.2453 135.941 60.968C136.367 60.392 136.613 59.8373 136.677 59.304C136.762 58.7493 136.698 58.3653 136.485 58.152C136.357 58.088 136.239 58.056 136.133 58.056C136.047 58.0347 135.866 58.0667 135.589 58.152C135.397 58.1947 135.13 58.3547 134.789 58.632C134.447 58.9093 134.106 59.2187 133.765 59.56C133.445 59.9013 133.199 60.1893 133.029 60.424L132.613 61.096C132.783 61.032 132.943 61 133.093 61C133.263 60.9787 133.359 60.9893 133.381 61.032C133.381 61.224 133.413 61.4053 133.477 61.576C133.562 61.7253 133.658 61.8427 133.765 61.928C133.893 62.0133 134.031 62.056 134.181 62.056ZM144.075 68.936C143.776 68.8507 143.531 68.7547 143.339 68.648C143.147 68.52 142.891 68.3173 142.571 68.04C142.315 67.6987 142.112 67.3787 141.963 67.08C141.835 66.7813 141.75 66.44 141.707 66.056C141.664 65.6507 141.643 65.1387 141.643 64.52C141.643 64.264 141.686 63.88 141.771 63.368C141.878 62.856 141.995 62.3227 142.123 61.768C142.272 61.192 142.4 60.68 142.507 60.232C142.635 59.784 142.71 59.496 142.731 59.368C142.795 59.0907 142.688 58.9307 142.411 58.888C142.134 58.8453 141.824 58.8347 141.483 58.856C141.163 58.856 140.95 58.824 140.843 58.76C140.758 58.7387 140.715 58.7067 140.715 58.664C140.715 58.6 140.715 58.568 140.715 58.568C140.715 58.4827 140.704 58.4293 140.683 58.408C140.683 58.3653 140.651 58.2907 140.587 58.184C140.544 58.0987 140.566 57.9813 140.651 57.832C140.758 57.6613 140.928 57.5547 141.163 57.512C141.355 57.4693 141.611 57.4373 141.931 57.416C142.272 57.3733 142.614 57.2987 142.955 57.192C143.296 57.064 143.574 56.872 143.787 56.616C143.979 56.1467 144.203 55.624 144.459 55.048C144.715 54.472 144.96 53.96 145.195 53.512C145.451 53.0427 145.622 52.7547 145.707 52.648C146.07 52.456 146.336 52.3813 146.507 52.424C146.678 52.4453 146.87 52.6267 147.083 52.968C147.19 53.1173 147.264 53.2347 147.307 53.32C147.371 53.4053 147.382 53.5333 147.339 53.704C147.296 53.8747 147.179 54.1413 146.987 54.504C146.816 54.8667 146.55 55.3893 146.187 56.072C146.08 56.2853 145.984 56.4773 145.899 56.648C145.814 56.7973 145.771 56.872 145.771 56.872C145.856 56.8933 145.984 56.904 146.155 56.904C146.326 56.904 146.539 56.8933 146.795 56.872C147.03 56.8293 147.328 56.7973 147.691 56.776C148.054 56.7333 148.342 56.7333 148.555 56.776C149.046 56.776 149.408 56.872 149.643 57.064C149.878 57.2347 150.006 57.5333 150.027 57.96C150.07 58.1947 150.016 58.3333 149.867 58.376C149.739 58.4187 149.387 58.44 148.811 58.44C148.619 58.44 148.32 58.4507 147.915 58.472C147.51 58.4933 147.083 58.5147 146.635 58.536C146.208 58.5573 145.835 58.5893 145.515 58.632C145.216 58.6533 145.067 58.6853 145.067 58.728C145.003 58.7707 144.896 58.9733 144.747 59.336C144.619 59.6987 144.48 60.1147 144.331 60.584C144.203 61.032 144.086 61.4373 143.979 61.8C143.83 62.5253 143.712 63.2507 143.627 63.976C143.563 64.7013 143.552 65.3307 143.595 65.864C143.638 66.3973 143.755 66.7707 143.947 66.984C144.139 67.176 144.512 67.2187 145.067 67.112C145.622 66.984 146.07 66.7813 146.411 66.504C146.795 66.184 147.104 66.024 147.339 66.024C147.595 66.024 147.734 66.1413 147.755 66.376C147.798 66.5893 147.68 66.8987 147.403 67.304C147.147 67.688 146.827 68.0293 146.443 68.328C146.059 68.6053 145.654 68.808 145.227 68.936C144.822 69.0427 144.438 69.0427 144.075 68.936ZM151.277 67.432C151.191 67.432 151.085 67.4107 150.957 67.368C150.85 67.304 150.797 67.272 150.797 67.272C150.797 67.1867 150.765 67.08 150.701 66.952C150.658 66.824 150.637 66.7173 150.637 66.632C150.487 66.5467 150.402 66.4613 150.381 66.376C150.359 66.2693 150.391 66.0987 150.477 65.864C150.605 65.6507 150.775 65.3093 150.989 64.84C151.202 64.3493 151.426 63.8267 151.661 63.272C151.895 62.696 152.119 62.1307 152.333 61.576C152.546 61.0213 152.727 60.552 152.877 60.168C153.026 59.7627 153.111 59.5173 153.133 59.432C153.133 59.3467 153.165 59.24 153.229 59.112C153.293 58.984 153.367 58.8773 153.453 58.792C153.623 58.6427 153.805 58.632 153.997 58.76C154.189 58.8667 154.349 59.0587 154.477 59.336C154.626 59.592 154.701 59.88 154.701 60.2C154.701 60.3493 154.594 60.7333 154.381 61.352C154.167 61.9493 153.879 62.664 153.517 63.496C153.175 64.328 152.791 65.1707 152.365 66.024C152.045 66.6427 151.842 67.0373 151.757 67.208C151.671 67.3573 151.511 67.432 151.277 67.432ZM155.981 55.304C155.725 55.304 155.447 55.208 155.149 55.016C154.871 54.8027 154.626 54.5467 154.413 54.248C154.221 53.928 154.125 53.608 154.125 53.288C154.125 53.1813 154.189 53.032 154.317 52.84C154.445 52.648 154.573 52.456 154.701 52.264C154.829 52.072 154.893 51.9547 154.893 51.912C155.063 51.912 155.191 51.9227 155.277 51.944C155.383 51.944 155.511 51.9867 155.661 52.072C155.895 52.6053 156.183 53.0427 156.525 53.384C156.887 53.7253 157.069 54.0133 157.069 54.248C157.069 54.7173 157.026 55.016 156.941 55.144C156.855 55.2507 156.535 55.304 155.981 55.304ZM158.141 67.432C157.907 67.2827 157.694 67.0907 157.502 66.856C157.31 66.6 157.214 66.28 157.214 65.896C157.214 65.6827 157.256 65.32 157.342 64.808C157.427 64.296 157.544 63.72 157.694 63.08C157.843 62.44 157.992 61.8427 158.141 61.288C158.355 60.904 158.536 60.52 158.686 60.136C158.835 59.752 158.91 59.5173 158.91 59.432C158.952 59.176 159.006 58.8773 159.07 58.536C159.155 58.1947 159.24 57.8853 159.326 57.608C159.411 57.3307 159.475 57.1707 159.518 57.128C159.624 57.0213 159.752 56.9573 159.902 56.936C160.051 56.8933 160.2 56.9147 160.35 57C160.52 57.064 160.648 57.2027 160.734 57.416C160.968 57.672 161.086 57.9813 161.086 58.344C161.086 58.6853 160.968 59.1973 160.734 59.88C160.542 60.3067 160.35 60.808 160.158 61.384C159.966 61.96 159.795 62.4933 159.646 62.984C159.518 63.4533 159.443 63.7733 159.422 63.944L158.782 64.136C159.144 63.7947 159.486 63.4427 159.806 63.08C160.126 62.696 160.36 62.3973 160.51 62.184C160.872 61.6933 161.182 61.288 161.438 60.968C161.715 60.6267 162.067 60.2213 162.494 59.752C162.92 59.2613 163.336 58.9627 163.742 58.856C164.168 58.728 164.499 58.664 164.734 58.664C165.203 58.7493 165.576 58.9947 165.854 59.4C166.152 59.784 166.344 60.36 166.43 61.128C166.43 61.4267 166.398 61.7787 166.334 62.184C166.291 62.5893 166.27 62.792 166.27 62.792C166.27 62.792 166.44 62.568 166.782 62.12C167.144 61.672 167.624 61.1813 168.222 60.648C168.627 60.3493 169.022 60.1787 169.406 60.136C169.79 60.072 170.131 60.2 170.43 60.52C170.984 60.8187 171.347 61.2773 171.517 61.896C171.688 62.4933 171.731 63.2613 171.646 64.2C171.582 64.7547 171.571 65.1707 171.614 65.448C171.656 65.704 171.72 65.96 171.806 66.216C171.976 66.3013 172.008 66.4827 171.902 66.76C171.795 67.016 171.667 67.144 171.517 67.144C171.304 67.144 171.059 67.1013 170.782 67.016C170.526 66.9307 170.291 66.792 170.078 66.6C169.886 66.3867 169.79 66.0987 169.79 65.736V63.752C169.79 63.2827 169.768 62.8987 169.726 62.6C169.704 62.3013 169.651 62.12 169.566 62.056C169.331 61.928 168.99 62.0667 168.542 62.472C168.094 62.8773 167.614 63.4213 167.102 64.104C166.59 64.7867 166.11 65.4907 165.662 66.216C165.256 66.8773 165 67.2613 164.894 67.368C164.808 67.4533 164.648 67.4213 164.414 67.272C163.944 67.1227 163.646 66.92 163.518 66.664C163.411 66.3867 163.4 66.0773 163.486 65.736C163.592 65.3733 163.72 64.8827 163.87 64.264C164.04 63.6453 164.2 63.048 164.35 62.472C164.499 61.8747 164.595 61.448 164.638 61.192C164.552 61.0213 164.403 60.968 164.19 61.032C163.998 61.0747 163.795 61.1707 163.582 61.32C163.326 61.4907 163.016 61.8107 162.654 62.28C162.291 62.7493 161.918 63.2933 161.534 63.912C161.278 64.3173 161.011 64.7227 160.734 65.128C160.456 65.512 160.2 65.8533 159.966 66.152C159.731 66.4507 159.528 66.6747 159.358 66.824C159.059 67.2933 158.856 67.5493 158.75 67.592C158.643 67.6347 158.44 67.5813 158.141 67.432ZM180.176 67.88C179.728 68.264 179.205 68.488 178.608 68.552C178.032 68.616 177.466 68.5307 176.912 68.296C176.357 68.04 175.898 67.656 175.536 67.144C175.173 66.6747 174.938 66.1413 174.832 65.544C174.725 64.9253 174.714 64.1253 174.8 63.144C174.864 62.312 175.13 61.48 175.6 60.648C176.069 59.7947 176.634 59.0373 177.296 58.376C177.978 57.7147 178.65 57.256 179.312 57C179.632 56.7867 179.898 56.6907 180.112 56.712C180.346 56.712 180.698 56.7333 181.168 56.776C181.658 56.84 182.021 56.936 182.256 57.064C182.512 57.192 182.714 57.3627 182.864 57.576C183.184 57.896 183.397 58.216 183.504 58.536C183.61 58.8347 183.664 59.1333 183.664 59.432C183.578 59.9013 183.258 60.4773 182.704 61.16C182.17 61.8213 181.466 62.3653 180.592 62.792C180.122 62.9413 179.61 63.0053 179.056 62.984C178.501 62.9627 178.042 62.824 177.68 62.568C177.274 62.3973 177.008 62.4293 176.88 62.664C176.752 62.8773 176.634 63.4107 176.528 64.264C176.442 65.0747 176.506 65.672 176.72 66.056C176.933 66.4187 177.221 66.632 177.584 66.696C178.01 66.7813 178.341 66.8453 178.576 66.888C178.832 66.9093 179.141 66.8133 179.504 66.6C179.845 66.3867 180.058 66.2693 180.144 66.248C180.229 66.2053 180.293 66.1627 180.336 66.12C180.4 66.056 180.538 65.9173 180.752 65.704C180.901 65.5547 181.018 65.448 181.104 65.384C181.189 65.2987 181.285 65.256 181.392 65.256C181.498 65.256 181.594 65.3093 181.68 65.416C181.765 65.5013 181.85 65.5653 181.936 65.608C182.149 65.608 182.192 65.736 182.064 65.992C181.957 66.248 181.733 66.5573 181.392 66.92C181.05 67.2613 180.645 67.5813 180.176 67.88ZM180.144 61.096C180.378 60.9893 180.624 60.84 180.88 60.648C181.136 60.4347 181.349 60.2107 181.52 59.976C181.712 59.72 181.808 59.5067 181.808 59.336C181.808 59.0373 181.669 58.792 181.392 58.6C181.114 58.3867 180.698 58.3547 180.144 58.504C179.909 58.568 179.642 58.728 179.344 58.984C179.045 59.2187 178.757 59.4853 178.48 59.784C178.224 60.0827 178.01 60.3493 177.84 60.584C177.69 60.8187 177.637 60.9573 177.68 61C177.744 61.1067 177.925 61.192 178.224 61.256C178.522 61.2987 178.853 61.3093 179.216 61.288C179.6 61.2667 179.909 61.2027 180.144 61.096ZM186.902 69.128C186.497 68.9573 186.113 68.7333 185.75 68.456C185.387 68.1573 185.153 67.912 185.046 67.72C185.046 67.528 185.078 67.4 185.142 67.336C185.206 67.2507 185.387 67.2187 185.686 67.24C186.006 67.24 186.518 67.2827 187.222 67.368C187.478 67.368 187.798 67.3467 188.182 67.304C188.566 67.2613 188.918 67.1973 189.238 67.112C189.579 67.0267 189.771 66.92 189.814 66.792C189.921 66.792 189.942 66.76 189.878 66.696C189.814 66.6107 189.739 66.5253 189.654 66.44C189.569 66.44 189.473 66.408 189.366 66.344C189.259 66.2587 189.163 66.216 189.078 66.216C189.078 66.1093 188.971 65.992 188.758 65.864C188.566 65.7147 188.363 65.5973 188.15 65.512C187.681 65.128 187.275 64.7867 186.934 64.488C186.593 64.168 186.465 63.9547 186.55 63.848C186.55 63.7627 186.55 63.72 186.55 63.72C186.55 63.6987 186.55 63.688 186.55 63.688C186.401 63.688 186.23 63.4747 186.038 63.048C185.867 62.6213 185.782 62.2373 185.782 61.896C185.782 61.64 185.857 61.32 186.006 60.936C186.155 60.5307 186.358 60.1147 186.614 59.688C186.87 59.2613 187.137 58.9093 187.414 58.632C187.798 58.2693 188.278 57.8853 188.854 57.48C189.43 57.0533 189.995 56.68 190.55 56.36C191.126 56.0187 191.606 55.7947 191.99 55.688C192.374 55.5387 192.726 55.464 193.046 55.464C193.387 55.464 193.686 55.5387 193.942 55.688C194.155 55.7947 194.347 55.9547 194.518 56.168C194.71 56.36 194.87 56.5627 194.998 56.776C195.147 56.968 195.243 57.1387 195.286 57.288C195.286 57.544 195.265 57.832 195.222 58.152C195.179 58.4507 195.115 58.7173 195.03 58.952C194.966 59.1867 194.859 59.304 194.71 59.304C194.71 59.304 194.678 59.3147 194.614 59.336C194.571 59.336 194.55 59.3893 194.55 59.496C194.55 59.7093 194.39 59.9547 194.07 60.232C193.665 60.5093 193.313 60.68 193.014 60.744C192.715 60.7867 192.534 60.6693 192.47 60.392C192.406 60.3067 192.363 60.232 192.342 60.168C192.321 60.104 192.267 60.072 192.182 60.072C192.182 60.072 192.15 60.04 192.086 59.976C192.022 59.912 191.99 59.8053 191.99 59.656C191.99 59.5707 192.022 59.496 192.086 59.432C192.15 59.3467 192.182 59.304 192.182 59.304C192.289 59.304 192.427 59.1867 192.598 58.952C192.769 58.696 192.918 58.4293 193.046 58.152C193.195 57.8533 193.27 57.6507 193.27 57.544C193.27 57.416 193.249 57.3413 193.206 57.32C193.185 57.2987 193.089 57.288 192.918 57.288C192.619 57.416 192.257 57.5867 191.83 57.8C191.403 58.0133 190.998 58.2267 190.614 58.44C190.251 58.632 189.985 58.8133 189.814 58.984C189.729 59.1333 189.675 59.2293 189.654 59.272C189.633 59.2933 189.579 59.304 189.494 59.304C189.494 59.2187 189.419 59.2613 189.27 59.432C189.142 59.5813 188.971 59.7947 188.758 60.072C188.566 60.3493 188.374 60.6267 188.182 60.904C188.011 61.16 187.883 61.352 187.798 61.48C187.755 61.5227 187.702 61.6507 187.638 61.864C187.595 62.056 187.574 62.2373 187.574 62.408C187.489 62.664 187.499 62.8453 187.606 62.952C187.713 63.0373 187.947 63.2293 188.31 63.528C189.057 64.0827 189.643 64.5413 190.07 64.904C190.497 65.2667 190.817 65.5653 191.03 65.8C191.243 66.0347 191.371 66.248 191.414 66.44C191.798 67.08 191.915 67.5707 191.766 67.912C191.617 68.2533 191.254 68.552 190.678 68.808C190.465 68.9147 190.113 69 189.622 69.064C189.131 69.128 188.63 69.16 188.118 69.16C187.606 69.1813 187.201 69.1707 186.902 69.128ZM206.55 69.992C206.401 69.7573 206.06 69.608 205.526 69.544C205.014 69.48 204.385 69.4693 203.638 69.512C203.34 69.5547 203.052 69.5333 202.774 69.448C202.497 69.384 202.273 69.2667 202.102 69.096C201.953 68.9467 201.9 68.7867 201.942 68.616C201.964 68.36 202.177 68.1573 202.582 68.008C203.009 67.8587 203.681 67.7733 204.598 67.752L206.294 67.72L206.614 67.08C206.7 66.8453 206.806 66.5147 206.934 66.088C207.062 65.6613 207.201 65.2027 207.35 64.712C207.436 64.4133 207.564 64.008 207.734 63.496C207.905 62.984 208.086 62.44 208.278 61.864C208.47 61.288 208.641 60.776 208.79 60.328C208.94 59.8587 209.036 59.528 209.078 59.336C209.164 59.144 209.281 58.824 209.43 58.376C209.58 57.9067 209.718 57.4373 209.846 56.968C209.996 56.4773 210.092 56.1253 210.134 55.912C210.689 54.2267 211.052 53.032 211.222 52.328C211.393 51.6027 211.436 51.2293 211.35 51.208C211.265 51.208 211.052 51.2187 210.71 51.24C210.39 51.2613 210.028 51.2933 209.622 51.336C209.238 51.3573 208.886 51.3893 208.566 51.432C208.268 51.4747 208.086 51.5173 208.022 51.56C207.916 51.7093 207.734 51.7413 207.478 51.656C207.222 51.5707 207.062 51.4213 206.998 51.208C206.977 51.016 206.966 50.8667 206.966 50.76C206.988 50.6533 207.052 50.568 207.158 50.504C207.308 50.376 207.596 50.2373 208.022 50.088C208.449 49.9173 208.929 49.768 209.462 49.64C210.017 49.512 210.54 49.416 211.03 49.352C211.393 49.3093 211.756 49.2347 212.118 49.128C212.481 49 212.769 48.8507 212.982 48.68C213.174 48.616 213.356 48.5627 213.526 48.52C213.718 48.4773 213.91 48.4667 214.102 48.488C214.273 48.5947 214.561 48.648 214.966 48.648C215.393 48.648 215.841 48.6373 216.31 48.616C217.505 48.5093 218.305 48.4773 218.71 48.52C219.137 48.5627 219.425 48.7333 219.574 49.032C219.681 49.4373 219.702 49.7573 219.638 49.992C219.574 50.2053 219.361 50.3013 218.998 50.28C218.806 50.3227 218.454 50.3653 217.942 50.408C217.452 50.4293 216.929 50.4507 216.374 50.472C214.86 50.6 214.049 50.7493 213.942 50.92C213.857 51.0053 213.782 51.0907 213.718 51.176C213.676 51.2613 213.612 51.3573 213.526 51.464C213.548 51.5493 213.494 51.8267 213.366 52.296C213.26 52.744 213.121 53.2027 212.95 53.672C212.865 53.9493 212.737 54.344 212.566 54.856C212.396 55.368 212.214 55.9013 212.022 56.456C211.852 56.9893 211.692 57.48 211.542 57.928C211.393 58.3547 211.286 58.6427 211.222 58.792C211.137 58.984 211.062 59.1973 210.998 59.432C210.956 59.6453 210.924 59.8053 210.902 59.912C210.604 60.9573 210.337 61.8427 210.102 62.568C209.889 63.2933 209.686 63.9333 209.494 64.488C209.324 65.0213 209.164 65.544 209.014 66.056C208.865 66.5467 208.705 67.0907 208.534 67.688C208.534 67.688 208.694 67.6773 209.014 67.656C209.356 67.6133 209.804 67.5707 210.358 67.528C211.361 67.4213 212.076 67.3573 212.502 67.336C212.95 67.3147 213.249 67.3467 213.398 67.432C213.548 67.496 213.654 67.624 213.718 67.816C214.145 68.392 214.198 68.7867 213.878 69C213.558 69.2133 212.801 69.3093 211.606 69.288C210.497 69.3307 209.644 69.3627 209.046 69.384C208.47 69.4267 208.065 69.48 207.83 69.544C207.617 69.608 207.489 69.7147 207.446 69.864C207.446 70.0347 207.361 70.12 207.19 70.12C207.02 70.12 206.806 70.0773 206.55 69.992ZM227.529 68.264C227.059 68.264 226.707 68.2427 226.473 68.2C226.238 68.1573 226.057 68.0933 225.929 68.008C225.801 67.9227 225.651 67.8053 225.481 67.656C225.395 67.4853 225.289 67.304 225.161 67.112C225.033 66.92 224.926 66.7813 224.841 66.696C224.755 66.376 224.713 65.96 224.713 65.448C224.734 64.936 224.798 64.3813 224.905 63.784C225.033 63.1867 225.203 62.632 225.417 62.12C225.502 61.9493 225.577 61.7787 225.641 61.608C225.705 61.4373 225.737 61.352 225.737 61.352C225.737 61.2453 225.865 60.9893 226.121 60.584C226.398 60.1787 226.697 59.752 227.017 59.304C227.358 58.856 227.635 58.536 227.849 58.344C227.998 58.1733 228.222 57.992 228.521 57.8C228.841 57.608 229.118 57.4693 229.353 57.384C229.587 57.2987 229.822 57.224 230.057 57.16C230.313 57.096 230.601 57.064 230.921 57.064C231.219 57.064 231.497 57.128 231.753 57.256C232.009 57.384 232.254 57.608 232.489 57.928C232.873 58.312 233.086 58.696 233.129 59.08C233.193 59.4427 233.182 59.816 233.097 60.2C232.99 60.6267 232.851 60.9573 232.681 61.192C232.51 61.4053 232.318 61.5013 232.105 61.48C231.891 61.4587 231.646 61.2987 231.369 61C231.283 60.8293 231.241 60.6907 231.241 60.584C231.241 60.456 231.283 60.2747 231.369 60.04C231.454 59.7413 231.454 59.432 231.369 59.112C231.283 58.792 231.145 58.632 230.953 58.632C230.675 58.632 230.366 58.76 230.025 59.016C229.705 59.2507 229.374 59.5493 229.033 59.912C228.883 60.0827 228.67 60.3493 228.393 60.712C228.137 61.0533 227.881 61.4373 227.625 61.864C227.369 62.2693 227.155 62.664 226.985 63.048C226.75 63.752 226.558 64.3173 226.409 64.744C226.281 65.1707 226.217 65.384 226.217 65.384C226.217 65.4693 226.238 65.5547 226.281 65.64C226.345 65.704 226.377 65.7787 226.377 65.864C226.377 66.12 226.526 66.3227 226.825 66.472C227.059 66.6213 227.337 66.7067 227.657 66.728C227.977 66.728 228.371 66.6213 228.841 66.408C229.182 66.2373 229.502 66.0133 229.801 65.736C230.121 65.4587 230.451 65.2133 230.793 65C231.027 64.8507 231.209 64.7227 231.337 64.616C231.486 64.5093 231.561 64.4987 231.561 64.584C231.561 64.6693 231.593 64.712 231.657 64.712C231.721 64.712 231.795 64.6693 231.881 64.584C232.009 64.4133 232.147 64.3067 232.297 64.264C232.446 64.2 232.574 64.1787 232.681 64.2C232.809 64.2 232.873 64.232 232.873 64.296C232.83 64.488 232.873 64.648 233.001 64.776C233.001 64.8613 232.969 64.9787 232.905 65.128C232.862 65.256 232.798 65.3627 232.713 65.448C232.606 65.5973 232.446 65.768 232.233 65.96C232.041 66.152 231.859 66.3227 231.689 66.472C231.518 66.6 231.433 66.664 231.433 66.664C231.347 66.6427 231.262 66.664 231.177 66.728C231.113 66.792 231.038 66.8667 230.953 66.952C230.782 67.1013 230.622 67.2187 230.473 67.304C230.323 67.368 230.206 67.4 230.121 67.4C229.971 67.4853 229.854 67.5387 229.769 67.56C229.705 67.5813 229.673 67.6347 229.673 67.72C229.459 67.9333 229.193 68.0827 228.873 68.168C228.574 68.232 228.126 68.264 227.529 68.264ZM238.748 67.784C238.3 67.8693 238.012 67.9013 237.884 67.88C237.777 67.8373 237.606 67.7093 237.372 67.496C237.03 67.3253 236.742 67.112 236.508 66.856C236.294 66.6 236.134 66.3333 236.028 66.056C235.942 65.7573 235.91 65.512 235.932 65.32C235.996 64.5733 236.177 63.7733 236.476 62.92C236.774 62.0667 237.137 61.2453 237.564 60.456C237.99 59.6667 238.449 58.9947 238.94 58.44C239.452 57.864 239.942 57.4907 240.411 57.32C240.838 57.1493 241.244 57.0853 241.628 57.128C242.012 57.1707 242.289 57.3733 242.46 57.736C242.78 58.3547 242.705 58.7493 242.236 58.92C242.172 58.92 242.097 58.952 242.012 59.016C241.926 59.0587 241.884 59.1227 241.884 59.208C241.969 59.2507 242.204 59.2613 242.588 59.24C242.972 59.1973 243.356 59.1333 243.74 59.048C244.145 58.9413 244.412 58.8347 244.54 58.728C244.668 58.664 244.764 58.632 244.828 58.632C244.892 58.632 245.052 58.6533 245.308 58.696C245.67 58.8027 245.852 58.9307 245.852 59.08C245.852 59.1653 245.884 59.2507 245.948 59.336C246.012 59.4 246.086 59.432 246.172 59.432C246.321 59.4533 246.3 59.5493 246.108 59.72C245.937 59.8907 245.638 60.1253 245.212 60.424C244.806 60.68 244.55 60.8507 244.444 60.936C244.358 61 244.348 61.1493 244.412 61.384C244.582 61.7893 244.593 62.2587 244.444 62.792C244.294 63.3253 244.028 63.8693 243.644 64.424C243.26 64.9787 242.79 65.5013 242.236 65.992C241.702 66.4613 241.126 66.8667 240.508 67.208C239.91 67.528 239.324 67.72 238.748 67.784ZM238.204 66.376C238.289 66.376 238.438 66.3333 238.652 66.248C238.865 66.1413 239.036 66.056 239.164 65.992C239.249 65.9067 239.356 65.8107 239.484 65.704C239.633 65.576 239.75 65.5013 239.836 65.48C239.921 65.48 240.028 65.448 240.156 65.384C240.284 65.2987 240.465 65.1387 240.7 64.904C240.934 64.648 241.244 64.2747 241.628 63.784C242.054 63.3147 242.385 62.888 242.62 62.504C242.854 62.0987 242.918 61.7253 242.812 61.384C242.79 61.2987 242.726 61.2453 242.62 61.224C242.534 61.2027 242.417 61.1493 242.268 61.064C242.054 61.064 241.852 61.0107 241.66 60.904C241.489 60.776 241.286 60.616 241.052 60.424L240.54 59.784L239.996 60.328C239.654 60.6693 239.292 61.1813 238.908 61.864C238.545 62.5253 238.236 63.208 237.98 63.912C237.724 64.5947 237.574 65.1387 237.532 65.544C237.51 65.864 237.564 66.0773 237.692 66.184C237.82 66.2907 237.99 66.3547 238.204 66.376ZM253.805 68.904C253.57 68.9893 253.399 69.0213 253.293 69C253.207 68.9573 252.983 68.7973 252.621 68.52C252.471 68.264 252.375 68.04 252.333 67.848C252.311 67.6347 252.301 67.2613 252.301 66.728C252.343 66.408 252.429 65.9493 252.557 65.352C252.706 64.7547 252.877 64.1253 253.069 63.464C253.261 62.8027 253.431 62.2053 253.581 61.672C253.751 61.1387 253.879 60.776 253.965 60.584C254.114 60.072 254.146 59.7627 254.061 59.656C253.975 59.528 253.719 59.4427 253.293 59.4C252.439 59.2933 251.671 59.5707 250.989 60.232C250.306 60.8933 249.623 61.7573 248.941 62.824C248.429 63.6133 248.119 64.296 248.013 64.872C247.927 65.4267 247.917 65.8107 247.981 66.024C248.045 66.1947 248.194 66.2907 248.429 66.312C248.663 66.312 248.919 66.2587 249.197 66.152C249.495 66.0453 249.751 65.9387 249.965 65.832C250.114 65.7467 250.295 65.6613 250.509 65.576C250.743 65.4693 250.967 65.3733 251.181 65.288C251.309 65.288 251.394 65.3307 251.437 65.416C251.501 65.48 251.533 65.6187 251.533 65.832C251.533 65.9173 251.565 65.992 251.629 66.056C251.693 66.12 251.767 66.1733 251.853 66.216C251.938 66.3013 251.81 66.4933 251.469 66.792C251.149 67.0907 250.647 67.432 249.965 67.816C249.325 67.9653 248.802 68.04 248.397 68.04C248.013 68.04 247.639 67.9013 247.277 67.624C246.679 67.2613 246.338 66.6747 246.253 65.864C246.189 65.032 246.359 64.0187 246.765 62.824C247.17 61.864 247.618 61.0853 248.109 60.488C248.599 59.8693 249.122 59.272 249.677 58.696C249.762 58.6107 249.954 58.4827 250.253 58.312C250.573 58.12 250.967 57.9493 251.437 57.8C251.97 57.6293 252.471 57.5227 252.941 57.48C253.41 57.4373 253.815 57.5333 254.157 57.768C254.541 57.8533 254.786 57.8427 254.893 57.736C254.999 57.608 255.181 57.224 255.437 56.584C255.863 55.5173 256.279 54.44 256.685 53.352C257.09 52.2427 257.527 51.1227 257.997 49.992C258.21 49.5867 258.338 49.2773 258.381 49.064C258.445 48.8293 258.519 48.6693 258.605 48.584H259.213C259.298 48.584 259.447 48.6587 259.661 48.808C259.874 48.9573 260.023 49.16 260.109 49.416C260.109 49.608 260.023 50.0347 259.853 50.696C259.682 51.336 259.405 52.104 259.021 53C258.679 53.7893 258.338 54.5893 257.997 55.4C257.677 56.1893 257.367 57.032 257.069 57.928C256.834 58.5893 256.621 59.1227 256.429 59.528C256.237 59.9333 256.109 60.2853 256.045 60.584C255.917 61.1387 255.757 61.64 255.565 62.088C255.394 62.5147 255.277 62.8133 255.213 62.984C254.935 63.7947 254.711 64.456 254.541 64.968C254.37 65.4587 254.242 65.8747 254.157 66.216C254.071 66.536 254.018 66.8667 253.997 67.208C253.997 67.528 254.029 67.912 254.093 68.36C254.093 68.4453 254.082 68.5307 254.061 68.616C254.039 68.7013 253.954 68.7973 253.805 68.904ZM261.471 68.232C260.639 67.8907 260.095 67.4213 259.839 66.824C259.605 66.2053 259.562 65.256 259.711 63.976C259.754 63.3147 259.775 62.8773 259.775 62.664C259.775 62.4507 259.658 62.2373 259.423 62.024C259.359 61.9387 259.242 61.8213 259.071 61.672C258.922 61.5227 258.858 61.3947 258.879 61.288C258.858 61.1387 258.869 60.9787 258.911 60.808C258.954 60.616 259.018 60.52 259.103 60.52C259.189 60.52 259.274 60.4987 259.359 60.456C259.466 60.4133 259.562 60.4133 259.647 60.456C259.733 60.456 259.829 60.4667 259.935 60.488C260.042 60.5093 260.095 60.5627 260.095 60.648C260.181 60.7973 260.319 60.8187 260.511 60.712C260.703 60.584 260.906 60.3067 261.119 59.88C261.333 59.5387 261.61 59.1973 261.951 58.856C262.314 58.5147 262.666 58.2053 263.007 57.928C263.37 57.6293 263.669 57.416 263.903 57.288C264.01 57.2453 264.17 57.192 264.383 57.128C264.597 57.064 264.821 57.0107 265.055 56.968C265.311 56.9253 265.525 56.9147 265.695 56.936C266.079 56.9573 266.399 57.064 266.655 57.256C266.933 57.448 267.189 57.672 267.423 57.928C267.701 58.12 267.871 58.376 267.935 58.696C268.021 59.016 268.042 59.3573 267.999 59.72C267.957 60.0827 267.861 60.4133 267.711 60.712C267.647 60.9253 267.466 61.1813 267.167 61.48C266.869 61.7787 266.527 62.0667 266.143 62.344C265.759 62.6213 265.407 62.824 265.087 62.952C264.81 63.016 264.447 63.0693 263.999 63.112C263.573 63.1547 263.167 63.176 262.783 63.176C262.421 63.1547 262.175 63.112 262.047 63.048C261.898 62.9627 261.781 63.08 261.695 63.4C261.61 63.72 261.546 64.1787 261.503 64.776C261.461 65.2453 261.461 65.5867 261.503 65.8C261.546 66.0133 261.589 66.1627 261.631 66.248C261.781 66.3973 261.983 66.5893 262.239 66.824C262.517 67.0373 262.901 67.0693 263.391 66.92C263.797 66.8133 264.191 66.536 264.575 66.088C264.981 65.64 265.354 65.2773 265.695 65C265.781 64.8507 265.919 64.7653 266.111 64.744C266.325 64.7013 266.549 64.712 266.783 64.776C267.018 64.9253 267.114 65.1067 267.071 65.32C267.05 65.512 266.943 65.8107 266.751 66.216C266.687 66.3653 266.538 66.5573 266.303 66.792C266.09 67.0053 265.845 67.2293 265.567 67.464C265.311 67.6773 265.077 67.848 264.863 67.976C264.223 68.3173 263.626 68.4987 263.071 68.52C262.517 68.52 261.983 68.424 261.471 68.232ZM263.359 61.736C263.829 61.6293 264.202 61.5547 264.479 61.512C264.757 61.4693 265.023 61.352 265.279 61.16C265.535 60.9467 265.855 60.552 266.239 59.976C266.325 59.7413 266.346 59.5067 266.303 59.272C266.282 59.0373 266.229 58.8773 266.143 58.792C265.951 58.5787 265.717 58.5147 265.439 58.6C265.183 58.664 264.938 58.7813 264.703 58.952C264.554 59.016 264.33 59.176 264.031 59.432C263.754 59.6667 263.477 59.944 263.199 60.264C262.922 60.5627 262.698 60.84 262.527 61.096C262.357 61.352 262.314 61.5013 262.399 61.544C262.357 61.6293 262.474 61.6827 262.751 61.704C263.05 61.7253 263.253 61.736 263.359 61.736ZM281.516 60.616C281.11 60.7653 280.769 60.84 280.492 60.84C280.236 60.8187 279.948 60.6907 279.628 60.456C279.222 60.072 279.084 59.688 279.212 59.304C279.361 58.8987 279.713 58.504 280.268 58.12C280.652 57.8853 280.929 57.7573 281.1 57.736C281.292 57.7147 281.58 57.7893 281.964 57.96C282.604 58.3653 282.881 58.8133 282.796 59.304C282.732 59.7947 282.305 60.232 281.516 60.616ZM279.276 67.336C278.87 67.4853 278.529 67.56 278.252 67.56C277.996 67.5387 277.708 67.4107 277.388 67.176C276.982 66.792 276.844 66.408 276.972 66.024C277.121 65.6187 277.473 65.224 278.028 64.84C278.412 64.6053 278.689 64.4773 278.86 64.456C279.052 64.4347 279.34 64.5093 279.724 64.68C280.364 65.0853 280.641 65.5333 280.556 66.024C280.492 66.5147 280.065 66.952 279.276 67.336ZM282.835 72.84C282.43 72.7333 282.11 72.584 281.875 72.392C281.662 72.2 281.545 71.944 281.523 71.624C281.545 71.56 281.555 71.464 281.555 71.336C281.555 71.2293 281.598 71.1013 281.683 70.952C281.683 70.952 281.747 70.984 281.875 71.048C282.025 71.112 282.27 71.1013 282.611 71.016C283.038 71.0373 283.337 70.9947 283.507 70.888C283.678 70.7813 283.923 70.5467 284.243 70.184C284.478 69.864 284.745 69.4907 285.043 69.064C285.363 68.6373 285.577 68.2853 285.683 68.008C286.025 67.7733 286.27 67.56 286.419 67.368C286.569 67.1547 286.707 66.9413 286.835 66.728C286.835 66.6213 286.867 66.4293 286.931 66.152C286.995 65.8533 287.155 65.5013 287.411 65.096C287.646 64.5627 287.87 64.1147 288.083 63.752C288.297 63.368 288.403 63.1227 288.403 63.016C288.403 63.016 288.435 62.9413 288.499 62.792C288.563 62.6427 288.585 62.4613 288.563 62.248C288.691 62.184 288.798 62.0453 288.883 61.832C288.99 61.5973 289.033 61.3627 289.011 61.128C289.011 61.064 289.107 60.8187 289.299 60.392C289.491 59.944 289.598 59.496 289.619 59.048C289.854 58.28 290.025 57.5973 290.131 57C290.259 56.3813 290.355 55.7093 290.419 54.984C290.483 54.2587 290.547 53.3307 290.611 52.2C290.654 51.24 290.686 50.5253 290.707 50.056C290.729 49.5653 290.718 49.192 290.675 48.936C290.654 48.68 290.558 48.424 290.387 48.168C290.174 47.4853 289.993 47.144 289.843 47.144C289.779 47.144 289.705 47.0587 289.619 46.888C289.555 46.696 289.566 46.4507 289.651 46.152C289.63 46.0667 289.662 45.9707 289.747 45.864C289.833 45.7573 289.971 45.7147 290.163 45.736C290.313 45.736 290.473 45.8 290.643 45.928C290.835 46.0347 290.963 46.1307 291.027 46.216C291.113 46.1307 291.241 46.2373 291.411 46.536C291.603 46.8133 291.806 47.2613 292.019 47.88C292.147 48.1787 292.243 48.4347 292.307 48.648C292.371 48.84 292.414 49.064 292.435 49.32C292.457 49.5547 292.457 49.896 292.435 50.344C292.414 50.7707 292.382 51.368 292.339 52.136C292.339 52.8827 292.286 53.704 292.179 54.6C292.094 55.4747 291.987 56.3387 291.859 57.192C291.731 58.024 291.593 58.7813 291.443 59.464C291.294 60.0187 291.091 60.6907 290.835 61.48C290.579 62.248 290.291 63.0267 289.971 63.816C289.673 64.6053 289.385 65.3093 289.107 65.928C288.851 66.5467 288.638 66.984 288.467 67.24C288.51 67.24 288.446 67.368 288.275 67.624C288.126 67.88 287.913 68.2107 287.635 68.616C287.379 69 287.113 69.3947 286.835 69.8C286.558 70.2267 286.323 70.5893 286.131 70.888C285.811 71.336 285.449 71.72 285.043 72.04C284.638 72.36 284.243 72.5947 283.859 72.744C283.475 72.8933 283.134 72.9253 282.835 72.84Z" fill="white"/>
</svg>
